<svg width="400" height="100" viewBox="0 0 400 100" fill="none" xmlns="http://www.w3.org/2000/svg">
<g clip-path="url(#clip0_3_244)">
<path d="M136 28.608H120V15.264H136V28.608ZM120 34.736H136V83.266H120V34.736Z" fill="#313638"/>
<path d="M143.2 15.264H159.2V83.264H143.2V15.264Z" fill="#313638"/>
<path d="M166.4 15.264H182.4V83.264H166.4V15.264Z" fill="#313638"/>
<path d="M237.6 34.49V83.266H221.6V76.648C218.414 81.55 212.574 84.736 206.692 84.736C192.722 84.736 188.8 76.648 188.8 63.902V34.49H204.8V64.286C204.8 68.924 208.56 72.686 213.2 72.686C217.84 72.686 221.6 68.924 221.6 64.286V34.49H237.6Z" fill="#313638"/>
<path d="M321.6 54.098V83.266H305.6V52.856C305.6 48.878 302.376 45.656 298.4 45.656C294.424 45.656 291.2 48.878 291.2 52.856V83.266H275.2V52.856C275.2 48.878 271.976 45.656 268 45.656C264.024 45.656 260.8 48.878 260.8 52.856V83.266H244.8V34.49H260.8V41.108C263.742 36.206 268.82 33.02 274.456 33.02C280.584 33.02 285.976 34.98 288.672 40.864C292.104 35.716 297.742 32.774 303.868 33.02C319.31 33.02 321.6 44.784 321.6 54.098Z" fill="#313638"/>
<path d="M344 28.608H328V15.264H344V28.608ZM328 34.736H344V83.266H328V34.736Z" fill="#313638"/>
<path d="M374.02 33.264C388.236 33.264 399.756 44.538 400 58.754C400 72.97 388.726 84.49 374.51 84.734C360.294 84.734 348.774 73.46 348.53 59.244V58.998C348.04 45.272 358.824 33.752 372.55 33.262C373.04 33.262 373.53 33.262 374.02 33.262V33.264ZM374.02 72.48C381.372 72.48 383.824 65.128 383.824 59C383.824 52.872 381.374 45.52 374.02 45.52C366.666 45.52 364.462 52.872 364.462 59C364.462 65.128 366.668 72.48 374.02 72.48Z" fill="#313638"/>
<path d="M89.706 10.294V89.706H10.294V10.294H89.706ZM4.8 0C2.16 0 0 2.16 0 4.8V95.2C0 97.84 2.16 100 4.8 100H95.2C97.84 100 100 97.84 100 95.2V4.8C100 2.16 97.84 0 95.2 0H4.8Z" fill="#FF5500"/>
<path d="M58.714 42.828L63.542 38H76.314C77.64 38 78.714 36.926 78.714 35.6V22.4C78.714 21.074 77.64 20 76.314 20H63.114C61.788 20 60.714 21.074 60.714 22.4V35.172L55.886 40H41.542L33.288 31.746V24.974C33.288 23.648 32.214 22.574 30.888 22.574H23.688C22.362 22.574 21.288 23.648 21.288 24.974V32.174C21.288 33.5 22.362 34.574 23.688 34.574H30.46L38.714 42.828V57.172L30.46 65.426H23.688C22.362 65.426 21.288 66.5 21.288 67.826V75.026C21.288 76.352 22.362 77.426 23.688 77.426H30.888C32.214 77.426 33.288 76.352 33.288 75.026V68.254L41.542 60H55.886L60.714 64.828V77.6C60.714 78.926 61.788 80 63.114 80H76.314C77.64 80 78.714 78.926 78.714 77.6V64.4C78.714 63.074 77.64 62 76.314 62H63.542L58.714 57.172V42.83V42.828Z" fill="#FF5500"/>
</g>
<defs>
<clipPath id="clip0_3_244">
<rect width="400" height="100" fill="white"/>
</clipPath>
</defs>
</svg>
